<svg xmlns="http://www.w3.org/2000/svg" version="1.1" xmlns:xlink="http://www.w3.org/1999/xlink" xmlns:svgjs="http://svgjs.dev/svgjs" width="1500" height="219" viewBox="0 0 1500 219"><g transform="matrix(1,0,0,1,-0.9090909090909918,0.06340640832441125)"><svg viewBox="0 0 396 58" data-background-color="#2a160c" preserveAspectRatio="xMidYMid meet" height="219" width="1500" xmlns="http://www.w3.org/2000/svg" xmlns:xlink="http://www.w3.org/1999/xlink"><g id="tight-bounds" transform="matrix(1,0,0,1,0.2400000000000091,-0.016792564761715312)"><svg viewBox="0 0 395.52 58.03358512952343" height="58.03358512952343" width="395.52"><g><svg viewBox="0 0 395.52 58.03358512952343" height="58.03358512952343" width="395.52"><g><svg viewBox="0 0 395.52 58.03358512952343" height="58.03358512952343" width="395.52"><g><svg viewBox="0 0 395.52 58.03358512952343" height="58.03358512952343" width="395.52"><g id="textblocktransform"><svg viewBox="0 0 395.52 58.03358512952343" height="58.03358512952343" width="395.52" id="textblock"><g><svg viewBox="0 0 395.52 58.03358512952343" height="58.03358512952343" width="395.52"><g transform="matrix(1,0,0,1,0,0)"><svg width="395.52" viewBox="3.8 -36.5 252.82999999999998 37.1" height="58.03358512952343" data-palette-color="#f2f2f2"><path d="M8.6 0L3.8 0 3.8-35 18.55-35Q21.85-35 24.55-33.52 27.25-32.05 28.85-29.4 30.45-26.75 30.45-23.2L30.45-23.2Q30.45-19.75 28.88-17.1 27.3-14.45 24.6-12.95 21.9-11.45 18.45-11.45L18.45-11.45 8.6-11.45 8.6 0ZM8.6-30.75L8.6-15.7 17.9-15.7Q20.05-15.7 21.83-16.57 23.6-17.45 24.63-19.15 25.65-20.85 25.65-23.2L25.65-23.2Q25.65-25.6 24.63-27.28 23.6-28.95 21.83-29.85 20.05-30.75 17.95-30.75L17.95-30.75 8.6-30.75ZM45.65 0.6L45.65 0.6Q41.95 0.6 39.25-1.18 36.55-2.95 35.1-6 33.65-9.05 33.65-12.75L33.65-12.75Q33.65-16.5 35.25-19.53 36.85-22.55 39.85-24.33 42.85-26.1 47.05-26.1L47.05-26.1Q51.1-26.1 54-24.35 56.9-22.6 58.47-19.6 60.05-16.6 60.05-12.9L60.05-12.9 60.05 0 55.4 0 55.4-5.2 55.3-5.2Q54.55-3.75 53.27-2.43 52-1.1 50.1-0.25 48.2 0.6 45.65 0.6ZM46.85-3.35L46.85-3.35Q49.35-3.35 51.27-4.58 53.2-5.8 54.27-7.98 55.35-10.15 55.35-12.85L55.35-12.85Q55.35-15.5 54.32-17.6 53.3-19.7 51.4-20.93 49.5-22.15 46.95-22.15L46.95-22.15Q44.25-22.15 42.32-20.9 40.4-19.65 39.37-17.53 38.35-15.4 38.35-12.7L38.35-12.7Q38.35-10.1 39.35-7.98 40.35-5.85 42.25-4.6 44.15-3.35 46.85-3.35ZM80.25 0.6L80.25 0.6Q76.55 0.6 73.6-1 70.65-2.6 68.92-5.63 67.2-8.65 67.2-12.9L67.2-12.9 67.2-36.5 71.8-36.5 71.8-20.95 71.9-20.95Q72.75-22.5 74.12-23.65 75.5-24.8 77.27-25.45 79.05-26.1 81-26.1L81-26.1Q84.55-26.1 87.35-24.5 90.15-22.9 91.77-19.98 93.4-17.05 93.4-13.05L93.4-13.05Q93.4-9.9 92.42-7.38 91.45-4.85 89.7-3.05 87.95-1.25 85.55-0.33 83.15 0.6 80.25 0.6ZM80.25-3.35L80.25-3.35Q82.6-3.35 84.52-4.5 86.45-5.65 87.6-7.75 88.75-9.85 88.75-12.75L88.75-12.75Q88.75-15.55 87.62-17.65 86.5-19.75 84.6-20.95 82.7-22.15 80.3-22.15L80.3-22.15Q77.95-22.15 76.02-21 74.1-19.85 72.97-17.73 71.85-15.6 71.85-12.7L71.85-12.7Q71.85-9.85 72.97-7.75 74.1-5.65 76.02-4.5 77.95-3.35 80.25-3.35ZM103.89 0L99.29 0 99.29-36.5 103.89-36.5 103.89 0ZM123.19 0.6L123.19 0.6Q119.29 0.6 116.29-1.18 113.29-2.95 111.54-5.98 109.79-9 109.79-12.75L109.79-12.75Q109.79-16.5 111.54-19.53 113.29-22.55 116.29-24.33 119.29-26.1 123.19-26.1L123.19-26.1Q127.09-26.1 130.12-24.33 133.14-22.55 134.87-19.53 136.59-16.5 136.59-12.75L136.59-12.75Q136.59-9 134.87-5.98 133.14-2.95 130.12-1.18 127.09 0.6 123.19 0.6ZM123.19-3.35L123.19-3.35Q125.84-3.35 127.79-4.6 129.74-5.85 130.84-7.98 131.94-10.1 131.94-12.75L131.94-12.75Q131.94-15.4 130.84-17.53 129.74-19.65 127.79-20.9 125.84-22.15 123.19-22.15L123.19-22.15Q120.59-22.15 118.62-20.9 116.64-19.65 115.54-17.53 114.44-15.4 114.44-12.75L114.44-12.75Q114.44-10.1 115.54-7.98 116.64-5.85 118.62-4.6 120.59-3.35 123.19-3.35ZM166.09 0.6L166.09 0.6Q163.29 0.6 161.16-0.68 159.04-1.95 157.84-4.15 156.64-6.35 156.64-9.1L156.64-9.1 156.64-26.55Q156.64-27.9 155.99-29 155.34-30.1 154.24-30.75 153.14-31.4 151.84-31.4L151.84-31.4Q150.54-31.4 149.46-30.75 148.39-30.1 147.76-29 147.14-27.9 147.14-26.55L147.14-26.55 147.14 0 142.34 0 142.34-25.9Q142.34-28.65 143.54-30.85 144.74-33.05 146.89-34.33 149.04-35.6 151.84-35.6L151.84-35.6Q154.69-35.6 156.84-34.33 158.99-33.05 160.19-30.85 161.39-28.65 161.39-25.9L161.39-25.9 161.39-8.45Q161.39-7.1 162.04-6 162.69-4.9 163.76-4.25 164.84-3.6 166.09-3.6L166.09-3.6Q167.34-3.6 168.39-4.25 169.44-4.9 170.06-6 170.69-7.1 170.69-8.45L170.69-8.45 170.69-35 175.49-35 175.49-9.1Q175.49-6.35 174.29-4.15 173.09-1.95 170.99-0.68 168.89 0.6 166.09 0.6ZM193.24 0.6L193.24 0.6Q189.54 0.6 186.84-1.18 184.14-2.95 182.69-6 181.24-9.05 181.24-12.75L181.24-12.75Q181.24-16.5 182.84-19.53 184.44-22.55 187.44-24.33 190.44-26.1 194.64-26.1L194.64-26.1Q198.69-26.1 201.59-24.35 204.49-22.6 206.06-19.6 207.64-16.6 207.64-12.9L207.64-12.9 207.64 0 202.99 0 202.99-5.2 202.89-5.2Q202.14-3.75 200.86-2.43 199.59-1.1 197.69-0.25 195.79 0.6 193.24 0.6ZM194.44-3.35L194.44-3.35Q196.94-3.35 198.86-4.58 200.79-5.8 201.86-7.98 202.94-10.15 202.94-12.85L202.94-12.85Q202.94-15.5 201.91-17.6 200.89-19.7 198.99-20.93 197.09-22.15 194.54-22.15L194.54-22.15Q191.84-22.15 189.91-20.9 187.99-19.65 186.96-17.53 185.94-15.4 185.94-12.7L185.94-12.7Q185.94-10.1 186.94-7.98 187.94-5.85 189.84-4.6 191.74-3.35 194.44-3.35ZM227.33 0L214.58 0 214.58-3.95 226.78-3.95Q227.98-3.95 228.86-4.48 229.73-5 230.18-5.85 230.63-6.7 230.63-7.65L230.63-7.65Q230.63-8.55 230.23-9.33 229.83-10.1 229.01-10.58 228.18-11.05 227.03-11.05L227.03-11.05 221.88-11.05Q219.43-11.05 217.61-11.88 215.78-12.7 214.76-14.3 213.73-15.9 213.73-18.2L213.73-18.2Q213.73-20.15 214.68-21.8 215.63-23.45 217.33-24.48 219.03-25.5 221.23-25.5L221.23-25.5 232.98-25.5 232.98-21.55 221.68-21.55Q220.13-21.55 219.23-20.6 218.33-19.65 218.33-18.35L218.33-18.35Q218.33-17.1 219.26-16.18 220.18-15.25 221.88-15.25L221.88-15.25 226.78-15.25Q229.53-15.25 231.41-14.38 233.28-13.5 234.26-11.85 235.23-10.2 235.23-7.8L235.23-7.8Q235.23-5.75 234.23-3.98 233.23-2.2 231.46-1.1 229.68 0 227.33 0L227.33 0ZM256.63 0L253.63 0Q249.68 0 246.58-1.7 243.48-3.4 241.68-6.28 239.88-9.15 239.88-12.75L239.88-12.75Q239.88-16.35 241.68-19.23 243.48-22.1 246.58-23.8 249.68-25.5 253.63-25.5L253.63-25.5 256.63-25.5 256.63-21.55 253.48-21.55Q250.93-21.55 248.91-20.38 246.88-19.2 245.71-17.2 244.53-15.2 244.53-12.75L244.53-12.75Q244.53-10.3 245.71-8.3 246.88-6.3 248.91-5.13 250.93-3.95 253.48-3.95L253.48-3.95 256.63-3.95 256.63 0Z" opacity="1" transform="matrix(1,0,0,1,0,0)" fill="#f2f2f2" class="wordmark-text-0" data-fill-palette-color="primary" id="text-0"></path></svg></g></svg></g></svg></g></svg></g></svg></g></svg></g><defs></defs></svg><rect width="395.52" height="58.03358512952343" fill="none" stroke="none" visibility="hidden"></rect></g></svg></g></svg>